<svg width="1905" height="2072" viewBox="0 0 1905 2072" fill="none" xmlns="http://www.w3.org/2000/svg">
<path d="M1821 64H589C551.445 64 521 94.4446 521 132V1916C521 1953.56 551.445 1984 589 1984H1821C1858.56 1984 1889 1953.56 1889 1916V132C1889 94.4446 1858.56 64 1821 64Z" fill="#F0EFE8" stroke="#222222" stroke-width="31" stroke-linecap="round"/>
<path d="M1769 16H537C499.445 16 469 46.4446 469 84V1868C469 1905.56 499.445 1936 537 1936H1769C1806.56 1936 1837 1905.56 1837 1868V84C1837 46.4446 1806.56 16 1769 16Z" fill="#F0EFE8" stroke="#222222" stroke-width="31" stroke-linecap="round"/>
<path d="M715.097 573C715.097 573 1249 573 1591.1 573" stroke="#222222" stroke-width="59"/>
<path d="M715.071 729C715.071 729 1080.18 729 1314.12 729" stroke="#222222" stroke-width="59"/>
<path d="M715.097 881C715.097 881 1249 881 1591.1 881" stroke="#222222" stroke-width="59"/>
<path d="M715.097 1026C715.097 1026 1249 1026 1591.1 1026" stroke="#222222" stroke-width="59"/>
<path d="M715.097 1186C715.097 1186 1100 1186 1442.1 1186" stroke="#222222" stroke-width="59"/>
<path d="M715.095 1332C715.095 1332 968.031 1332 1130.1 1332" stroke="#222222" stroke-width="59"/>
<path d="M715 1474.09C715 1474.09 1211.84 1474.09 1530.2 1474.09" stroke="#222222" stroke-width="59"/>
<g filter="url(#filter0_d_1218_65)">
<path d="M177.245 1984.42L653.539 1684.21C470.625 1506.98 275.396 1434.92 200.645 1421.04L177.245 1984.42Z" fill="#FED3A8" stroke="#222222" stroke-width="31"/>
<path d="M184.403 1812.09L177.245 1984.42L327.461 1889.74C294.847 1822.39 218.5 1809.91 184.403 1812.09Z" fill="#383838" stroke="#222222" stroke-width="31"/>
<path d="M653.539 1684.21C470.625 1506.98 275.396 1434.92 200.645 1421.04L629.414 718.293C684.602 712.134 850.407 754.021 1072.12 970.844C950.921 1177.16 755.438 1510.43 653.539 1684.21Z" fill="#FFD041" stroke="#222222" stroke-width="31"/>
<path d="M1072.12 970.844C1105.05 914.79 1132.49 868.108 1151.09 836.542C1156.13 827.981 1160.99 819.595 1165.66 811.387C852.863 554.534 736.027 546.92 716.708 575.219L629.414 718.292C684.602 712.133 850.407 754.021 1072.12 970.844Z" fill="#D4E8EA" stroke="#222222" stroke-width="31"/>
<path d="M804.002 432.146L716.708 575.219C736.027 546.92 852.863 554.534 1165.66 811.387C1241.62 677.949 1192.81 762.345 1257.95 634.456C1323.09 506.568 1279.16 437.974 1259.02 398.065C1259.02 398.065 1163.73 273.406 1013.86 283.27C893.954 291.16 825.216 390.901 804.002 432.146Z" fill="#FE90A5"/>
<path d="M1151.09 836.542C1156.13 827.981 1160.99 819.595 1165.66 811.387M1165.66 811.387C1241.62 677.949 1192.81 762.345 1257.95 634.456C1323.09 506.568 1279.16 437.974 1259.02 398.065C1259.02 398.065 1163.73 273.406 1013.86 283.27C893.954 291.16 825.216 390.901 804.002 432.146L716.708 575.219C736.027 546.92 852.863 554.534 1165.66 811.387Z" stroke="#222222" stroke-width="31"/>
</g>
<g filter="url(#filter1_d_1218_65)">
<path d="M1354.45 284V188.64H1369.68L1420.88 256.096L1412.69 258.016V188.64H1432.53V284H1417.17L1366.86 216.032L1374.29 214.112V284H1354.45ZM1482.73 285.536C1475.82 285.536 1469.5 283.957 1463.78 280.8C1458.15 277.643 1453.63 273.333 1450.22 267.872C1446.89 262.325 1445.22 256.053 1445.22 249.056C1445.22 241.973 1446.89 235.701 1450.22 230.24C1453.63 224.779 1458.15 220.469 1463.78 217.312C1469.5 214.155 1475.82 212.576 1482.73 212.576C1489.64 212.576 1495.91 214.155 1501.54 217.312C1507.18 220.469 1511.66 224.779 1514.98 230.24C1518.4 235.701 1520.1 241.973 1520.1 249.056C1520.1 256.053 1518.4 262.325 1514.98 267.872C1511.66 273.333 1507.18 277.643 1501.54 280.8C1495.91 283.957 1489.64 285.536 1482.73 285.536ZM1482.73 268.256C1486.23 268.256 1489.26 267.445 1491.82 265.824C1494.46 264.203 1496.51 261.941 1497.96 259.04C1499.5 256.139 1500.26 252.811 1500.26 249.056C1500.26 245.301 1499.5 242.016 1497.96 239.2C1496.51 236.299 1494.46 234.037 1491.82 232.416C1489.26 230.709 1486.23 229.856 1482.73 229.856C1479.23 229.856 1476.16 230.709 1473.51 232.416C1470.87 234.037 1468.78 236.299 1467.24 239.2C1465.79 242.016 1465.06 245.301 1465.06 249.056C1465.06 252.811 1465.79 256.139 1467.24 259.04C1468.78 261.941 1470.87 264.203 1473.51 265.824C1476.16 267.445 1479.23 268.256 1482.73 268.256ZM1563.83 284.768C1555.38 284.768 1548.81 282.507 1544.12 277.984C1539.51 273.376 1537.21 266.976 1537.21 258.784V230.752H1525.43V214.112H1526.07C1529.65 214.112 1532.38 213.216 1534.26 211.424C1536.22 209.632 1537.21 206.944 1537.21 203.36V198.24H1556.41V214.112H1572.79V230.752H1556.41V257.504C1556.41 259.893 1556.83 261.899 1557.69 263.52C1558.54 265.056 1559.86 266.208 1561.65 266.976C1563.45 267.744 1565.66 268.128 1568.31 268.128C1568.91 268.128 1569.59 268.085 1570.36 268C1571.13 267.915 1571.94 267.829 1572.79 267.744V284C1571.51 284.171 1570.06 284.341 1568.44 284.512C1566.82 284.683 1565.28 284.768 1563.83 284.768ZM1610.12 267.625C1610.79 267.833 1611.46 267.979 1612.12 268.062C1612.79 268.104 1613.46 268.125 1614.12 268.125C1615.79 268.125 1617.4 267.896 1618.94 267.438C1620.48 266.979 1621.92 266.333 1623.25 265.5C1624.62 264.625 1625.83 263.583 1626.88 262.375C1627.96 261.125 1628.83 259.75 1629.5 258.25L1642 270.812C1640.42 273.062 1638.58 275.083 1636.5 276.875C1634.46 278.667 1632.23 280.188 1629.81 281.438C1627.44 282.688 1624.92 283.625 1622.25 284.25C1619.62 284.917 1616.92 285.25 1614.12 285.25C1609.42 285.25 1604.98 284.375 1600.81 282.625C1596.69 280.875 1593.06 278.438 1589.94 275.312C1586.85 272.188 1584.42 268.479 1582.62 264.188C1580.83 259.854 1579.94 255.104 1579.94 249.938C1579.94 244.646 1580.83 239.812 1582.62 235.438C1584.42 231.062 1586.85 227.333 1589.94 224.25C1593.06 221.167 1596.69 218.771 1600.81 217.062C1604.98 215.354 1609.42 214.5 1614.12 214.5C1616.92 214.5 1619.65 214.833 1622.31 215.5C1624.98 216.167 1627.5 217.125 1629.88 218.375C1632.29 219.625 1634.54 221.167 1636.62 223C1638.71 224.792 1640.54 226.812 1642.12 229.062L1610.12 267.625ZM1618.88 232.438C1618.08 232.146 1617.29 231.958 1616.5 231.875C1615.75 231.792 1614.96 231.75 1614.12 231.75C1611.79 231.75 1609.58 232.188 1607.5 233.062C1605.46 233.896 1603.67 235.104 1602.12 236.688C1600.62 238.271 1599.44 240.188 1598.56 242.438C1597.69 244.646 1597.25 247.146 1597.25 249.938C1597.25 250.562 1597.27 251.271 1597.31 252.062C1597.4 252.854 1597.5 253.667 1597.62 254.5C1597.79 255.292 1597.98 256.062 1598.19 256.812C1598.4 257.562 1598.67 258.229 1599 258.812L1618.88 232.438Z" fill="#222222"/>
<path d="M1651.29 284V214.112H1670.49V284H1651.29ZM1651.29 207.84V188.64H1670.49V207.84H1651.29ZM1718.2 284.768C1709.76 284.768 1703.19 282.507 1698.49 277.984C1693.88 273.376 1691.58 266.976 1691.58 258.784V230.752H1679.8V214.112H1680.44C1684.03 214.112 1686.76 213.216 1688.64 211.424C1690.6 209.632 1691.58 206.944 1691.58 203.36V198.24H1710.78V214.112H1727.16V230.752H1710.78V257.504C1710.78 259.893 1711.21 261.899 1712.06 263.52C1712.91 265.056 1714.24 266.208 1716.03 266.976C1717.82 267.744 1720.04 268.128 1722.68 268.128C1723.28 268.128 1723.96 268.085 1724.73 268C1725.5 267.915 1726.31 267.829 1727.16 267.744V284C1725.88 284.171 1724.43 284.341 1722.81 284.512C1721.19 284.683 1719.65 284.768 1718.2 284.768Z" fill="#FFD041"/>
</g>
<defs>
<filter id="filter0_d_1218_65" x="130.633" y="251.313" width="1221.04" height="1819.87" filterUnits="userSpaceOnUse" color-interpolation-filters="sRGB">
<feFlood flood-opacity="0" result="BackgroundImageFix"/>
<feColorMatrix in="SourceAlpha" type="matrix" values="0 0 0 0 0 0 0 0 0 0 0 0 0 0 0 0 0 0 127 0" result="hardAlpha"/>
<feOffset dx="7" dy="21"/>
<feGaussianBlur stdDeviation="18.45"/>
<feComposite in2="hardAlpha" operator="out"/>
<feColorMatrix type="matrix" values="0 0 0 0 0 0 0 0 0 0 0 0 0 0 0 0 0 0 0.25 0"/>
<feBlend mode="normal" in2="BackgroundImageFix" result="effect1_dropShadow_1218_65"/>
<feBlend mode="normal" in="SourceGraphic" in2="effect1_dropShadow_1218_65" result="shape"/>
</filter>
<filter id="filter1_d_1218_65" x="1350.75" y="185.94" width="384.116" height="108.296" filterUnits="userSpaceOnUse" color-interpolation-filters="sRGB">
<feFlood flood-opacity="0" result="BackgroundImageFix"/>
<feColorMatrix in="SourceAlpha" type="matrix" values="0 0 0 0 0 0 0 0 0 0 0 0 0 0 0 0 0 0 127 0" result="hardAlpha"/>
<feOffset dx="2" dy="3"/>
<feGaussianBlur stdDeviation="2.85"/>
<feComposite in2="hardAlpha" operator="out"/>
<feColorMatrix type="matrix" values="0 0 0 0 0 0 0 0 0 0 0 0 0 0 0 0 0 0 0.25 0"/>
<feBlend mode="normal" in2="BackgroundImageFix" result="effect1_dropShadow_1218_65"/>
<feBlend mode="normal" in="SourceGraphic" in2="effect1_dropShadow_1218_65" result="shape"/>
</filter>
</defs>
</svg>
