<svg width="2192" height="693" viewBox="0 0 2192 693" fill="none" xmlns="http://www.w3.org/2000/svg">
<path d="M572.3 561V151.25H637.75L857.75 441.1L822.55 449.35V151.25H907.8V561H841.8L625.65 268.95L657.55 260.7V561H572.3ZM1123.5 567.6C1093.8 567.6 1066.67 560.817 1042.1 547.25C1017.9 533.683 998.47 515.167 983.803 491.7C969.503 467.867 962.353 440.917 962.353 410.85C962.353 380.417 969.503 353.467 983.803 330C998.47 306.533 1017.9 288.017 1042.1 274.45C1066.67 260.883 1093.8 254.1 1123.5 254.1C1153.2 254.1 1180.15 260.883 1204.35 274.45C1228.55 288.017 1247.8 306.533 1262.1 330C1276.77 353.467 1284.1 380.417 1284.1 410.85C1284.1 440.917 1276.77 467.867 1262.1 491.7C1247.8 515.167 1228.55 533.683 1204.35 547.25C1180.15 560.817 1153.2 567.6 1123.5 567.6ZM1123.5 493.35C1138.54 493.35 1151.55 489.867 1162.55 482.9C1173.92 475.933 1182.72 466.217 1188.95 453.75C1195.55 441.283 1198.85 426.983 1198.85 410.85C1198.85 394.717 1195.55 380.6 1188.95 368.5C1182.72 356.033 1173.92 346.317 1162.55 339.35C1151.55 332.017 1138.54 328.35 1123.5 328.35C1108.47 328.35 1095.27 332.017 1083.9 339.35C1072.54 346.317 1063.55 356.033 1056.95 368.5C1050.72 380.6 1047.6 394.717 1047.6 410.85C1047.6 426.983 1050.72 441.283 1056.95 453.75C1063.55 466.217 1072.54 475.933 1083.9 482.9C1095.27 489.867 1108.47 493.35 1123.5 493.35ZM1471.98 564.3C1435.68 564.3 1407.45 554.583 1387.28 535.15C1367.48 515.35 1357.58 487.85 1357.58 452.65V332.2H1306.98V260.7H1309.73C1325.13 260.7 1336.87 256.85 1344.93 249.15C1353.37 241.45 1357.58 229.9 1357.58 214.5V192.5H1440.08V260.7H1510.48V332.2H1440.08V447.15C1440.08 457.417 1441.92 466.033 1445.58 473C1449.25 479.6 1454.93 484.55 1462.63 487.85C1470.33 491.15 1479.87 492.8 1491.23 492.8C1493.8 492.8 1496.73 492.617 1500.03 492.25C1503.33 491.883 1506.82 491.517 1510.48 491.15V561C1504.98 561.733 1498.75 562.467 1491.78 563.2C1484.82 563.933 1478.22 564.3 1471.98 564.3ZM1670.91 490.639C1673.78 491.534 1676.64 492.16 1679.51 492.519C1682.37 492.698 1685.24 492.787 1688.1 492.787C1695.26 492.787 1702.15 491.802 1708.78 489.833C1715.4 487.864 1721.58 485.089 1727.31 481.508C1733.22 477.748 1738.41 473.272 1742.88 468.08C1747.54 462.709 1751.3 456.801 1754.16 450.355L1807.88 504.335C1801.07 514.003 1793.19 522.686 1784.24 530.385C1775.47 538.083 1765.89 544.618 1755.51 549.989C1745.3 555.36 1734.47 559.389 1723.01 562.074C1711.73 564.939 1700.1 566.371 1688.1 566.371C1667.87 566.371 1648.8 562.611 1630.9 555.092C1613.17 547.572 1597.6 537.099 1584.17 523.671C1570.92 510.243 1560.45 494.309 1552.75 475.868C1545.05 457.248 1541.2 436.838 1541.2 414.638C1541.2 391.9 1545.05 371.132 1552.75 352.333C1560.45 333.534 1570.92 317.51 1584.17 304.262C1597.6 291.013 1613.17 280.718 1630.9 273.378C1648.8 266.037 1667.87 262.367 1688.1 262.367C1700.1 262.367 1711.82 263.799 1723.28 266.664C1734.74 269.529 1745.57 273.646 1755.78 279.018C1766.16 284.389 1775.83 291.013 1784.78 298.891C1793.73 306.589 1801.61 315.272 1808.41 324.94L1670.91 490.639ZM1708.51 339.442C1705.11 338.189 1701.71 337.383 1698.3 337.025C1695.08 336.667 1691.68 336.488 1688.1 336.488C1678.07 336.488 1668.58 338.368 1659.63 342.128C1650.86 345.709 1643.16 350.901 1636.54 357.704C1630.09 364.507 1624.99 372.743 1621.23 382.411C1617.47 391.9 1615.59 402.642 1615.59 414.638C1615.59 417.323 1615.68 420.367 1615.86 423.769C1616.22 427.17 1616.66 430.661 1617.2 434.242C1617.92 437.644 1618.72 440.956 1619.62 444.179C1620.51 447.401 1621.68 450.266 1623.11 452.772L1708.51 339.442Z" fill="#F0EFE8"/>
<path d="M1847.79 561V260.7H1930.29V561H1847.79ZM1847.79 233.75V151.25H1930.29V233.75H1847.79ZM2135.31 564.3C2099.01 564.3 2070.78 554.583 2050.61 535.15C2030.81 515.35 2020.91 487.85 2020.91 452.65V332.2H1970.31V260.7H1973.06C1988.46 260.7 2000.2 256.85 2008.26 249.15C2016.7 241.45 2020.91 229.9 2020.91 214.5V192.5H2103.41V260.7H2173.81V332.2H2103.41V447.15C2103.41 457.417 2105.25 466.033 2108.91 473C2112.58 479.6 2118.26 484.55 2125.96 487.85C2133.66 491.15 2143.2 492.8 2154.56 492.8C2157.13 492.8 2160.06 492.617 2163.36 492.25C2166.66 491.883 2170.15 491.517 2173.81 491.15V561C2168.31 561.733 2162.08 562.467 2155.11 563.2C2148.15 563.933 2141.55 564.3 2135.31 564.3Z" fill="#FFD041"/>
<path d="M491.569 56.9238H157.499C148.11 56.9238 140.499 64.535 140.499 73.9238V556.886C140.499 566.275 148.11 573.886 157.499 573.886H491.569C500.958 573.886 508.569 566.275 508.569 556.886V73.9238C508.569 64.535 500.958 56.9238 491.569 56.9238Z" fill="#F0EFE8" stroke="#222222" stroke-width="7.75" stroke-linecap="round"/>
<path d="M477.579 44H143.508C134.119 44 126.508 51.6111 126.508 61V543.962C126.508 553.351 134.119 560.962 143.508 560.962H477.579C486.967 560.962 494.579 553.351 494.579 543.962V61C494.579 51.6112 486.967 44 477.579 44Z" fill="#F0EFE8" stroke="#222222" stroke-width="7.75" stroke-linecap="round"/>
<path d="M192.722 193.973C192.722 193.973 336.372 193.973 428.417 193.973" stroke="#222222" stroke-width="14.75"/>
<path d="M192.715 235.976C192.715 235.976 290.95 235.976 353.895 235.976" stroke="#222222" stroke-width="14.75"/>
<path d="M192.722 276.902C192.722 276.902 336.372 276.902 428.416 276.902" stroke="#222222" stroke-width="14.75"/>
<path d="M192.722 315.943C192.722 315.943 336.372 315.943 428.417 315.943" stroke="#222222" stroke-width="14.75"/>
<path d="M192.722 359.023C192.722 359.023 296.282 359.023 388.327 359.023" stroke="#222222" stroke-width="14.75"/>
<path d="M192.722 398.334C192.722 398.334 260.776 398.334 304.382 398.334" stroke="#222222" stroke-width="14.75"/>
<path d="M192.696 436.592C192.696 436.592 326.375 436.592 412.031 436.592" stroke="#222222" stroke-width="14.75"/>
<g filter="url(#filter0_d_1256_2)">
<path d="M48.0089 574.001L176.159 493.169C126.945 445.449 74.4171 426.045 54.3049 422.308L48.0089 574.001Z" fill="#FED3A8" stroke="#222222" stroke-width="7.75"/>
<path d="M49.9345 527.6L48.0086 574.001L88.4253 548.508C79.6504 530.374 59.1085 527.013 49.9345 527.6Z" fill="#383838" stroke="#222222" stroke-width="7.75"/>
<path d="M176.159 493.169C126.945 445.45 74.4172 426.045 54.3049 422.308L169.668 233.094C184.517 231.436 229.128 242.714 288.782 301.094C256.172 356.644 203.576 446.379 176.159 493.169Z" fill="#FFD041" stroke="#222222" stroke-width="7.75"/>
<path d="M288.782 301.093C297.642 286 305.026 273.431 310.029 264.932C311.386 262.627 312.692 260.369 313.95 258.159C229.789 189.001 198.354 186.951 193.156 194.57L169.668 233.093C184.517 231.435 229.128 242.713 288.782 301.093Z" fill="#D4E8EA" stroke="#222222" stroke-width="7.75"/>
<path d="M216.643 156.048L193.155 194.571C198.353 186.951 229.789 189.002 313.949 258.16C334.388 222.231 321.254 244.955 338.78 210.521C356.306 176.087 344.486 157.618 339.068 146.872C339.068 146.872 313.431 113.308 273.105 115.963C240.845 118.088 222.35 144.943 216.643 156.048Z" fill="#FE90A5"/>
<path d="M310.029 264.933C311.386 262.627 312.692 260.369 313.949 258.16M313.949 258.16C334.388 222.231 321.254 244.955 338.78 210.521C356.306 176.087 344.486 157.618 339.068 146.872C339.068 146.872 313.431 113.308 273.105 115.963C240.845 118.088 222.35 144.943 216.643 156.048L193.155 194.571C198.353 186.951 229.789 189.002 313.949 258.16Z" stroke="#222222" stroke-width="7.75"/>
</g>
<g filter="url(#filter1_d_1256_2)">
<path d="M364.583 113.157V89.3172H368.391L381.191 106.181L379.143 106.661V89.3172H384.103V113.157H380.263L367.687 96.1652L369.543 95.6852V113.157H364.583ZM396.653 113.541C394.925 113.541 393.347 113.147 391.917 112.357C390.509 111.568 389.379 110.491 388.525 109.125C387.693 107.739 387.277 106.171 387.277 104.421C387.277 102.651 387.693 101.083 388.525 99.7172C389.379 98.3519 390.509 97.2746 391.917 96.4852C393.347 95.6959 394.925 95.3012 396.653 95.3012C398.381 95.3012 399.949 95.6959 401.357 96.4852C402.765 97.2746 403.885 98.3519 404.717 99.7172C405.571 101.083 405.997 102.651 405.997 104.421C405.997 106.171 405.571 107.739 404.717 109.125C403.885 110.491 402.765 111.568 401.357 112.357C399.949 113.147 398.381 113.541 396.653 113.541ZM396.653 109.221C397.528 109.221 398.285 109.019 398.925 108.613C399.587 108.208 400.099 107.643 400.461 106.917C400.845 106.192 401.037 105.36 401.037 104.421C401.037 103.483 400.845 102.661 400.461 101.957C400.099 101.232 399.587 100.667 398.925 100.261C398.285 99.8346 397.528 99.6212 396.653 99.6212C395.779 99.6212 395.011 99.8346 394.349 100.261C393.688 100.667 393.165 101.232 392.781 101.957C392.419 102.661 392.237 103.483 392.237 104.421C392.237 105.36 392.419 106.192 392.781 106.917C393.165 107.643 393.688 108.208 394.349 108.613C395.011 109.019 395.779 109.221 396.653 109.221ZM416.928 113.349C414.816 113.349 413.174 112.784 412 111.653C410.848 110.501 410.272 108.901 410.272 106.853V99.8452H407.328V95.6852H407.488C408.384 95.6852 409.067 95.4612 409.536 95.0132C410.027 94.5652 410.272 93.8932 410.272 92.9972V91.7172H415.072V95.6852H419.168V99.8452H415.072V106.533C415.072 107.131 415.179 107.632 415.392 108.037C415.606 108.421 415.936 108.709 416.384 108.901C416.832 109.093 417.387 109.189 418.048 109.189C418.198 109.189 418.368 109.179 418.56 109.157C418.752 109.136 418.955 109.115 419.168 109.093V113.157C418.848 113.2 418.486 113.243 418.08 113.285C417.675 113.328 417.291 113.349 416.928 113.349ZM428.502 109.063C428.669 109.116 428.836 109.152 429.002 109.173C429.169 109.183 429.336 109.188 429.502 109.188C429.919 109.188 430.32 109.131 430.706 109.017C431.091 108.902 431.45 108.741 431.784 108.532C432.127 108.313 432.43 108.053 432.69 107.751C432.961 107.438 433.18 107.095 433.346 106.72L436.471 109.86C436.075 110.423 435.617 110.928 435.096 111.376C434.586 111.824 434.028 112.204 433.424 112.517C432.831 112.829 432.2 113.063 431.534 113.22C430.877 113.386 430.2 113.47 429.502 113.47C428.325 113.47 427.216 113.251 426.174 112.813C425.143 112.376 424.237 111.767 423.456 110.985C422.685 110.204 422.075 109.277 421.627 108.204C421.18 107.121 420.956 105.933 420.956 104.642C420.956 103.319 421.18 102.11 421.627 101.017C422.075 99.9229 422.685 98.9906 423.456 98.2197C424.237 97.4489 425.143 96.8499 426.174 96.4229C427.216 95.9958 428.325 95.7822 429.502 95.7822C430.2 95.7822 430.883 95.8656 431.549 96.0322C432.216 96.1989 432.846 96.4385 433.44 96.751C434.044 97.0635 434.607 97.4489 435.127 97.9072C435.648 98.3551 436.107 98.8604 436.502 99.4229L428.502 109.063ZM430.69 100.267C430.492 100.194 430.294 100.147 430.096 100.126C429.909 100.105 429.711 100.095 429.502 100.095C428.919 100.095 428.367 100.204 427.846 100.423C427.336 100.631 426.888 100.933 426.502 101.329C426.127 101.725 425.831 102.204 425.612 102.767C425.393 103.319 425.284 103.944 425.284 104.642C425.284 104.798 425.289 104.975 425.299 105.173C425.32 105.371 425.346 105.574 425.377 105.782C425.419 105.98 425.466 106.173 425.518 106.36C425.57 106.548 425.638 106.715 425.721 106.86L430.69 100.267Z" fill="#222222"/>
<path d="M438.794 113.157V95.6852H443.594V113.157H438.794ZM438.794 94.1172V89.3172H443.594V94.1172H438.794ZM455.522 113.349C453.41 113.349 451.768 112.784 450.594 111.653C449.442 110.501 448.866 108.901 448.866 106.853V99.8452H445.922V95.6852H446.082C446.978 95.6852 447.661 95.4612 448.13 95.0132C448.621 94.5652 448.866 93.8932 448.866 92.9972V91.7172H453.666V95.6852H457.762V99.8452H453.666V106.533C453.666 107.131 453.773 107.632 453.986 108.037C454.2 108.421 454.53 108.709 454.978 108.901C455.426 109.093 455.981 109.189 456.642 109.189C456.792 109.189 456.962 109.179 457.154 109.157C457.346 109.136 457.549 109.115 457.762 109.093V113.157C457.442 113.2 457.08 113.243 456.674 113.285C456.269 113.328 455.885 113.349 455.522 113.349Z" fill="#FFD041"/>
</g>
<defs>
<filter id="filter0_d_1256_2" x="36.3561" y="107.963" width="326.51" height="487.728" filterUnits="userSpaceOnUse" color-interpolation-filters="sRGB">
<feFlood flood-opacity="0" result="BackgroundImageFix"/>
<feColorMatrix in="SourceAlpha" type="matrix" values="0 0 0 0 0 0 0 0 0 0 0 0 0 0 0 0 0 0 127 0" result="hardAlpha"/>
<feOffset dx="1.75" dy="5.25"/>
<feGaussianBlur stdDeviation="4.6125"/>
<feComposite in2="hardAlpha" operator="out"/>
<feColorMatrix type="matrix" values="0 0 0 0 0 0 0 0 0 0 0 0 0 0 0 0 0 0 0.25 0"/>
<feBlend mode="normal" in2="BackgroundImageFix" result="effect1_dropShadow_1256_2"/>
<feBlend mode="normal" in="SourceGraphic" in2="effect1_dropShadow_1256_2" result="shape"/>
</filter>
<filter id="filter1_d_1256_2" x="363.658" y="88.6424" width="96.0292" height="27.0736" filterUnits="userSpaceOnUse" color-interpolation-filters="sRGB">
<feFlood flood-opacity="0" result="BackgroundImageFix"/>
<feColorMatrix in="SourceAlpha" type="matrix" values="0 0 0 0 0 0 0 0 0 0 0 0 0 0 0 0 0 0 127 0" result="hardAlpha"/>
<feOffset dx="0.5" dy="0.75"/>
<feGaussianBlur stdDeviation="0.7125"/>
<feComposite in2="hardAlpha" operator="out"/>
<feColorMatrix type="matrix" values="0 0 0 0 0 0 0 0 0 0 0 0 0 0 0 0 0 0 0.25 0"/>
<feBlend mode="normal" in2="BackgroundImageFix" result="effect1_dropShadow_1256_2"/>
<feBlend mode="normal" in="SourceGraphic" in2="effect1_dropShadow_1256_2" result="shape"/>
</filter>
</defs>
</svg>
